<svg width="120" height="40" viewBox="0 0 120 40" fill="none" xmlns="http://www.w3.org/2000/svg">
<path d="M120 0H0V40H120V0Z" fill="#393E46"/>
<path d="M25.3159 29.2009H21.4449V10.6719H29.9099C33.4969 10.6719 35.6649 12.9719 35.6649 16.6069C35.6649 18.2839 34.7359 22.5169 29.7549 22.5169H25.3159V29.2009ZM28.903 19.3169C31.793 19.3169 31.793 17.2519 31.793 16.4269C31.793 14.6209 30.786 13.8719 28.386 13.8719H25.3149V19.3169H28.9019H28.903Z" fill="white"/>
<path d="M38.348 15.4714H41.806V17.8454H41.857C42.606 16.4514 43.431 15.1094 45.625 15.1094C45.8591 15.1137 46.0928 15.1311 46.325 15.1614V18.8264C45.9828 18.7827 45.6378 18.7653 45.293 18.7744C42.48 18.7744 41.964 20.5294 41.964 22.0514V29.2004H38.348V15.4714Z" fill="white"/>
<path d="M54.117 29.5624C50.427 29.5624 47.098 27.2914 47.098 22.3364C47.098 17.3814 50.427 15.1104 54.117 15.1104C57.807 15.1104 61.136 17.3814 61.136 22.3364C61.136 27.2914 57.807 29.5624 54.117 29.5624ZM54.117 18.1554C51.33 18.1554 50.817 20.5814 50.817 22.3364C50.817 24.0914 51.333 26.5174 54.117 26.5174C56.901 26.5174 57.417 24.0914 57.417 22.3364C57.417 20.5814 56.904 18.1554 54.117 18.1554Z" fill="white"/>
<path d="M67.845 29.2015H64.232V18.0525H62.245V15.4715H64.232V14.3615C64.232 11.5225 65.78 10.4385 68.258 10.4385C69.316 10.4385 69.806 10.4645 70.116 10.4905V13.4065H69.11C67.871 13.4065 67.845 13.7935 67.845 14.9295V15.4715H70.194V18.0525H67.845V29.2015Z" fill="white"/>
<path d="M75.975 13.8423H72.362V10.4873H75.975V13.8423ZM75.975 15.4683V29.1973H72.362V15.4723L75.975 15.4683Z" fill="white"/>
<path d="M83.1479 29.2009H79.535V10.6719H83.1479V29.2009Z" fill="white"/>
<path d="M98.4009 25.1754C98.0466 26.4863 97.2542 27.6364 96.1555 28.4345C95.0569 29.2326 93.7182 29.6306 92.3619 29.5624C88.4909 29.5624 85.5229 27.7044 85.5229 22.0524C85.5229 20.4004 86.0909 15.1104 92.1039 15.1104C94.8139 15.1104 98.5559 16.4004 98.5559 22.6714V23.3164H89.136C89.236 24.3484 89.4459 26.6714 92.3619 26.6714C92.8589 26.7037 93.353 26.5754 93.7714 26.3053C94.1897 26.0351 94.51 25.6376 94.6849 25.1714L98.4009 25.1754ZM94.8389 20.9694C94.6329 18.7504 93.2129 18.0794 92.0519 18.0794C90.3519 18.0794 89.4449 19.1634 89.2389 20.9694H94.8389Z" fill="white"/>
</svg>
